<?xml version="1.0" encoding="UTF-8"?>
<!DOCTYPE svg PUBLIC "-//W3C//DTD SVG 1.1//EN" "http://www.w3.org/Graphics/SVG/1.1/DTD/svg11.dtd">
<svg xmlns="http://www.w3.org/2000/svg" version="1.1" width="1739px" height="280px" style="shape-rendering:geometricPrecision; text-rendering:geometricPrecision; image-rendering:optimizeQuality; fill-rule:evenodd; clip-rule:evenodd" xmlns:xlink="http://www.w3.org/1999/xlink">
<g><path style="opacity:1" fill="#fefefe" d="M -0.5,-0.5 C 579.167,-0.5 1158.83,-0.5 1738.5,-0.5C 1738.5,89.5 1738.5,179.5 1738.5,269.5C 1159.83,269.5 581.167,269.5 2.5,269.5C 2.5,270.5 2.5,271.5 2.5,272.5C 581.167,272.5 1159.83,272.5 1738.5,272.5C 1738.5,274.833 1738.5,277.167 1738.5,279.5C 1158.83,279.5 579.167,279.5 -0.5,279.5C -0.5,186.167 -0.5,92.8333 -0.5,-0.5 Z"/></g>
<g><path style="opacity:1" fill="#5d5d5d" d="M 99.5,70.5 C 101.833,70.5 104.167,70.5 106.5,70.5C 106.5,86.8333 106.5,103.167 106.5,119.5C 104.167,119.5 101.833,119.5 99.5,119.5C 99.5,103.167 99.5,86.8333 99.5,70.5 Z"/></g>
<g><path style="opacity:1" fill="#5b5b5b" d="M 192.5,70.5 C 194.833,70.5 197.167,70.5 199.5,70.5C 199.5,72.1667 199.5,73.8333 199.5,75.5C 203.167,75.5 206.833,75.5 210.5,75.5C 210.5,77.5 210.5,79.5 210.5,81.5C 200.833,81.5 191.167,81.5 181.5,81.5C 181.5,79.8333 181.5,78.1667 181.5,76.5C 185.167,76.5 188.833,76.5 192.5,76.5C 192.5,74.5 192.5,72.5 192.5,70.5 Z"/></g>
<g><path style="opacity:1" fill="#5a5a5a" d="M 213.5,70.5 C 215.833,70.5 218.167,70.5 220.5,70.5C 220.5,86.8333 220.5,103.167 220.5,119.5C 218.167,119.5 215.833,119.5 213.5,119.5C 213.5,103.167 213.5,86.8333 213.5,70.5 Z"/></g>
<g><path style="opacity:1" fill="#afafaf" d="M 261.5,70.5 C 261.5,86.8333 261.5,103.167 261.5,119.5C 263.5,119.5 265.5,119.5 267.5,119.5C 267.174,111.316 267.508,103.316 268.5,95.5C 268.5,103.833 268.5,112.167 268.5,120.5C 265.833,120.5 263.167,120.5 260.5,120.5C 260.17,103.658 260.503,86.9916 261.5,70.5 Z"/></g>
<g><path style="opacity:1" fill="#595959" d="M 261.5,70.5 C 263.833,70.5 266.167,70.5 268.5,70.5C 268.5,76.8333 268.5,83.1667 268.5,89.5C 270.833,89.5 273.167,89.5 275.5,89.5C 275.5,91.5 275.5,93.5 275.5,95.5C 273.167,95.5 270.833,95.5 268.5,95.5C 267.508,103.316 267.174,111.316 267.5,119.5C 265.5,119.5 263.5,119.5 261.5,119.5C 261.5,103.167 261.5,86.8333 261.5,70.5 Z"/></g>
<g><path style="opacity:1" fill="#595959" d="M 321.5,75.5 C 321.5,77.1667 321.5,78.8333 321.5,80.5C 318.287,80.19 315.287,80.5233 312.5,81.5C 312.755,84.0163 313.589,86.3496 315,88.5C 317.619,90.2208 320.119,92.0541 322.5,94C 320.721,97.7785 318.054,98.4452 314.5,96C 312.65,93.9824 310.65,92.1491 308.5,90.5C 305.824,95.3282 301.824,97.8282 296.5,98C 295.743,96.4878 294.743,95.1545 293.5,94C 299.009,92.3221 302.676,88.8221 304.5,83.5C 305.404,82.791 305.737,81.791 305.5,80.5C 302.167,80.5 298.833,80.5 295.5,80.5C 295.5,78.8333 295.5,77.1667 295.5,75.5C 298.833,75.5 302.167,75.5 305.5,75.5C 305.5,73.8333 305.5,72.1667 305.5,70.5C 307.833,70.5 310.167,70.5 312.5,70.5C 312.5,72.1667 312.5,73.8333 312.5,75.5C 315.5,75.5 318.5,75.5 321.5,75.5 Z"/></g>
<g><path style="opacity:1" fill="#5d5d5d" d="M 325.5,70.5 C 327.833,70.5 330.167,70.5 332.5,70.5C 332.5,74.1667 332.5,77.8333 332.5,81.5C 334.833,81.5 337.167,81.5 339.5,81.5C 339.5,83.5 339.5,85.5 339.5,87.5C 337.167,87.5 334.833,87.5 332.5,87.5C 332.5,91.5 332.5,95.5 332.5,99.5C 330.167,99.5 327.833,99.5 325.5,99.5C 325.5,89.8333 325.5,80.1667 325.5,70.5 Z"/></g>
<g><path style="opacity:1" fill="#5a5a5a" d="M 378.5,70.5 C 380.833,70.5 383.167,70.5 385.5,70.5C 385.5,86.8333 385.5,103.167 385.5,119.5C 383.167,119.5 380.833,119.5 378.5,119.5C 378.5,113.5 378.5,107.5 378.5,101.5C 371.626,100.198 366.293,102.365 362.5,108C 353.042,110.918 347.208,107.418 345,97.5C 342.433,88.1531 344.933,80.6531 352.5,75C 358.694,73.2356 363.694,74.9023 367.5,80C 371.152,80.4986 374.818,80.6653 378.5,80.5C 378.5,77.1667 378.5,73.8333 378.5,70.5 Z"/></g>
<g><path style="opacity:1" fill="#595959" d="M 119.5,72.5 C 131.5,72.5 143.5,72.5 155.5,72.5C 155.5,74.5 155.5,76.5 155.5,78.5C 151.116,78.1744 146.783,78.5078 142.5,79.5C 146.271,84.3885 151.271,87.2218 157.5,88C 156.789,90.6121 155.122,92.1121 152.5,92.5C 146.06,91.6965 140.893,88.6965 137,83.5C 132.638,89.4315 126.804,92.2648 119.5,92C 118.707,90.9148 118.04,89.7481 117.5,88.5C 121.611,86.9453 125.611,85.1119 129.5,83C 130.305,81.8873 130.972,80.7206 131.5,79.5C 132.043,79.44 132.376,79.1067 132.5,78.5C 128.217,77.5078 123.884,77.1744 119.5,77.5C 119.5,75.8333 119.5,74.1667 119.5,72.5 Z"/></g>
<g><path style="opacity:1" fill="#5c5c5c" d="M 240.5,74.5 C 242.833,74.5 245.167,74.5 247.5,74.5C 245.876,86.3087 249.542,95.9754 258.5,103.5C 255.465,109.661 251.965,109.661 248,103.5C 246.92,101.004 245.586,98.6705 244,96.5C 241.762,102.069 238.096,106.402 233,109.5C 231.338,108.003 229.838,106.337 228.5,104.5C 238.154,96.8907 242.154,86.8907 240.5,74.5 Z"/></g>
<g><path style="opacity:1" fill="#5a5a5a" d="M 83.5,83.5 C 84.404,82.791 84.7373,81.791 84.5,80.5C 78.8333,80.5 73.1667,80.5 67.5,80.5C 67.5,78.8333 67.5,77.1667 67.5,75.5C 75.5,75.5 83.5,75.5 91.5,75.5C 91.3226,92.2083 83.8226,104.208 69,111.5C 67.8333,109.833 66.6667,108.167 65.5,106.5C 70.4192,103.443 74.9192,99.7759 79,95.5C 81.3849,91.847 82.8849,87.847 83.5,83.5 Z"/></g>
<g><path style="opacity:1" fill="#9e9e9e" d="M 192.5,70.5 C 192.5,72.5 192.5,74.5 192.5,76.5C 188.833,76.5 185.167,76.5 181.5,76.5C 181.5,78.1667 181.5,79.8333 181.5,81.5C 180.539,79.7354 180.205,77.7354 180.5,75.5C 184.167,75.5 187.833,75.5 191.5,75.5C 191.216,73.5853 191.549,71.9187 192.5,70.5 Z"/></g>
<g><path style="opacity:1" fill="#9e9e9e" d="M 119.5,72.5 C 119.5,74.1667 119.5,75.8333 119.5,77.5C 123.884,77.1744 128.217,77.5078 132.5,78.5C 132.376,79.1067 132.043,79.44 131.5,79.5C 127.366,78.5151 123.032,78.1818 118.5,78.5C 118.205,76.2646 118.539,74.2646 119.5,72.5 Z"/></g>
<g><path style="opacity:1" fill="#9f9f9f" d="M 67.5,80.5 C 73.1667,80.5 78.8333,80.5 84.5,80.5C 84.7373,81.791 84.404,82.791 83.5,83.5C 78.4104,81.8563 73.077,80.8563 67.5,80.5 Z"/></g>
<g><path style="opacity:1" fill="#9d9d9d" d="M 295.5,80.5 C 298.833,80.5 302.167,80.5 305.5,80.5C 305.737,81.791 305.404,82.791 304.5,83.5C 301.797,81.89 298.797,80.89 295.5,80.5 Z"/></g>
<g><path style="opacity:1" fill="#a6a6a6" d="M 321.5,75.5 C 322.461,77.2646 322.795,79.2646 322.5,81.5C 319.167,81.5 315.833,81.5 312.5,81.5C 315.287,80.5233 318.287,80.19 321.5,80.5C 321.5,78.8333 321.5,77.1667 321.5,75.5 Z"/></g>
<g><path style="opacity:1" fill="#f8f8f8" d="M 354.5,80.5 C 358.683,79.8456 361.516,81.5123 363,85.5C 364.01,91.0642 363.343,96.3975 361,101.5C 356.293,104.514 353.293,103.18 352,97.5C 351.333,93.1667 351.333,88.8333 352,84.5C 352.662,83.0161 353.496,81.6828 354.5,80.5 Z"/></g>
<g><path style="opacity:1" fill="#5a5a5a" d="M 190.5,83.5 C 194.582,83.3436 198.582,83.8436 202.5,85C 208.747,89.5135 209.08,94.5135 203.5,100C 200.124,100.307 198.79,102.14 199.5,105.5C 203.534,105.495 207.534,105.162 211.5,104.5C 211.5,106.167 211.5,107.833 211.5,109.5C 201.19,111.105 190.856,111.438 180.5,110.5C 179.691,108.929 179.357,107.262 179.5,105.5C 183.833,105.5 188.167,105.5 192.5,105.5C 192.5,104.167 192.5,102.833 192.5,101.5C 184.487,99.8084 181.987,95.1417 185,87.5C 186.812,86.0229 188.645,84.6896 190.5,83.5 Z"/></g>
<g><path style="opacity:1" fill="#f3f3f3" d="M 369.5,86.5 C 372.5,86.5 375.5,86.5 378.5,86.5C 378.5,89.5 378.5,92.5 378.5,95.5C 375.5,95.5 372.5,95.5 369.5,95.5C 369.5,92.5 369.5,89.5 369.5,86.5 Z"/></g>
<g><path style="opacity:1" fill="#565656" d="M 159.5,101.5 C 144.833,101.5 130.167,101.5 115.5,101.5C 115.5,99.8333 115.5,98.1667 115.5,96.5C 121.5,96.5 127.5,96.5 133.5,96.5C 133.5,94.1667 133.5,91.8333 133.5,89.5C 135.833,89.5 138.167,89.5 140.5,89.5C 140.5,91.8333 140.5,94.1667 140.5,96.5C 146.833,96.5 153.167,96.5 159.5,96.5C 159.5,98.1667 159.5,99.8333 159.5,101.5 Z"/></g>
<g><path style="opacity:1" fill="#f2f2f2" d="M 193.5,88.5 C 198.264,88.0892 200.764,90.0892 201,94.5C 197.621,96.923 194.121,97.0897 190.5,95C 189.483,93.9505 189.316,92.7839 190,91.5C 191.145,90.3636 192.312,89.3636 193.5,88.5 Z"/></g>
<g><path style="opacity:1" fill="#717171" d="M 115.5,96.5 C 115.5,98.1667 115.5,99.8333 115.5,101.5C 130.167,101.5 144.833,101.5 159.5,101.5C 144.676,102.496 129.676,102.829 114.5,102.5C 114.205,100.265 114.539,98.2646 115.5,96.5 Z"/></g>
<g><path style="opacity:1" fill="#575757" d="M 300.5,101.5 C 311.167,101.5 321.833,101.5 332.5,101.5C 332.5,107.5 332.5,113.5 332.5,119.5C 321.833,119.5 311.167,119.5 300.5,119.5C 300.5,113.5 300.5,107.5 300.5,101.5 Z"/></g>
<g><path style="opacity:1" fill="#5f5f5f" d="M 120.5,105.5 C 122.833,105.5 125.167,105.5 127.5,105.5C 127.5,108.167 127.5,110.833 127.5,113.5C 136.5,113.5 145.5,113.5 154.5,113.5C 154.5,115.5 154.5,117.5 154.5,119.5C 143.167,119.5 131.833,119.5 120.5,119.5C 120.5,114.833 120.5,110.167 120.5,105.5 Z"/></g>
<g><path style="opacity:1" fill="#fdfdfd" d="M 307.5,107.5 C 313.5,107.5 319.5,107.5 325.5,107.5C 325.5,109.5 325.5,111.5 325.5,113.5C 319.5,113.5 313.5,113.5 307.5,113.5C 307.5,111.5 307.5,109.5 307.5,107.5 Z"/></g>
<g><path style="opacity:1" fill="#9e9e9e" d="M 307.5,107.5 C 313.645,106.51 319.978,106.177 326.5,106.5C 326.5,109.167 326.5,111.833 326.5,114.5C 319.978,114.823 313.645,114.49 307.5,113.5C 313.5,113.5 319.5,113.5 325.5,113.5C 325.5,111.5 325.5,109.5 325.5,107.5C 319.5,107.5 313.5,107.5 307.5,107.5 Z"/></g>
<g><path style="opacity:1" fill="#dddddd" d="M 1685.5,147.5 C 1686.87,147.343 1688.21,147.51 1689.5,148C 1695.55,153.71 1701.21,159.71 1706.5,166C 1700.7,172.971 1694.36,179.471 1687.5,185.5C 1685.05,184.573 1684.22,182.906 1685,180.5C 1689.83,175.667 1694.67,170.833 1699.5,166C 1694.67,161.167 1689.83,156.333 1685,151.5C 1684.42,150.072 1684.59,148.738 1685.5,147.5 Z"/></g>
<g><path style="opacity:1" fill="#99999d" d="M 591.5,148.5 C 592.5,148.5 593.5,148.5 594.5,148.5C 594.5,161.167 594.5,173.833 594.5,186.5C 593.5,186.5 592.5,186.5 591.5,186.5C 591.5,173.833 591.5,161.167 591.5,148.5 Z"/></g>
<g><path style="opacity:1" fill="#9a99a0" d="M 92.5,148.5 C 93.5,148.5 94.5,148.5 95.5,148.5C 95.5,161.5 95.5,174.5 95.5,187.5C 94.5,187.5 93.5,187.5 92.5,187.5C 92.5,174.5 92.5,161.5 92.5,148.5 Z"/></g>
<g><path style="opacity:1" fill="#a6a1a1" d="M 130.5,149.5 C 131.833,149.5 133.167,149.5 134.5,149.5C 134.5,161.833 134.5,174.167 134.5,186.5C 133.167,186.5 131.833,186.5 130.5,186.5C 130.5,174.167 130.5,161.833 130.5,149.5 Z"/></g>
<g><path style="opacity:1" fill="#9f9ea0" d="M 164.5,148.5 C 165.833,148.5 167.167,148.5 168.5,148.5C 168.5,150.167 168.5,151.833 168.5,153.5C 171.5,153.5 174.5,153.5 177.5,153.5C 177.5,154.5 177.5,155.5 177.5,156.5C 169.833,156.5 162.167,156.5 154.5,156.5C 154.5,155.5 154.5,154.5 154.5,153.5C 157.833,153.5 161.167,153.5 164.5,153.5C 164.5,151.833 164.5,150.167 164.5,148.5 Z"/></g>
<g><path style="opacity:1" fill="#9999a0" d="M 181.5,148.5 C 182.5,148.5 183.5,148.5 184.5,148.5C 184.5,161.167 184.5,173.833 184.5,186.5C 183.5,186.5 182.5,186.5 181.5,186.5C 181.5,173.833 181.5,161.167 181.5,148.5 Z"/></g>
<g><path style="opacity:1" fill="#99999f" d="M 218.5,149.5 C 219.5,149.5 220.5,149.5 221.5,149.5C 221.5,154.5 221.5,159.5 221.5,164.5C 223.5,164.5 225.5,164.5 227.5,164.5C 227.5,165.5 227.5,166.5 227.5,167.5C 225.5,167.5 223.5,167.5 221.5,167.5C 221.5,173.833 221.5,180.167 221.5,186.5C 220.5,186.5 219.5,186.5 218.5,186.5C 218.5,174.167 218.5,161.833 218.5,149.5 Z"/></g>
<g><path style="opacity:1" fill="#a6a4a5" d="M 259.5,149.5 C 260.833,149.5 262.167,149.5 263.5,149.5C 263.5,161.833 263.5,174.167 263.5,186.5C 262.167,186.5 260.833,186.5 259.5,186.5C 259.5,174.167 259.5,161.833 259.5,149.5 Z"/></g>
<g><path style="opacity:1" fill="#9d9a99" d="M 297.5,148.5 C 298.5,148.5 299.5,148.5 300.5,148.5C 300.5,161.167 300.5,173.833 300.5,186.5C 299.5,186.5 298.5,186.5 297.5,186.5C 297.5,179.167 297.5,171.833 297.5,164.5C 294.5,164.5 291.5,164.5 288.5,164.5C 288.5,163.5 288.5,162.5 288.5,161.5C 291.5,161.5 294.5,161.5 297.5,161.5C 297.5,157.167 297.5,152.833 297.5,148.5 Z"/></g>
<g><path style="opacity:1" fill="#a1a1a8" d="M 345.5,149.5 C 346.833,149.5 348.167,149.5 349.5,149.5C 349.5,154.5 349.5,159.5 349.5,164.5C 351.5,164.5 353.5,164.5 355.5,164.5C 355.5,165.5 355.5,166.5 355.5,167.5C 353.5,167.5 351.5,167.5 349.5,167.5C 349.5,173.833 349.5,180.167 349.5,186.5C 348.167,186.5 346.833,186.5 345.5,186.5C 345.5,174.167 345.5,161.833 345.5,149.5 Z"/></g>
<g><path style="opacity:1" fill="#9f9e9e" d="M 369.5,149.5 C 373.514,149.334 377.514,149.501 381.5,150C 388.999,151.925 390.333,155.758 385.5,161.5C 384.534,163.396 384.201,165.396 384.5,167.5C 387.167,167.5 389.833,167.5 392.5,167.5C 392.5,168.5 392.5,169.5 392.5,170.5C 381.167,170.5 369.833,170.5 358.5,170.5C 358.5,169.5 358.5,168.5 358.5,167.5C 361.5,167.5 364.5,167.5 367.5,167.5C 367.66,165.801 367.494,164.134 367,162.5C 360.458,156.712 361.291,152.378 369.5,149.5 Z"/></g>
<g><path style="opacity:1" fill="#9e9c9d" d="M 406.5,149.5 C 407.833,149.5 409.167,149.5 410.5,149.5C 410.5,151.167 410.5,152.833 410.5,154.5C 413.5,154.5 416.5,154.5 419.5,154.5C 419.5,155.5 419.5,156.5 419.5,157.5C 412.167,157.5 404.833,157.5 397.5,157.5C 397.5,156.5 397.5,155.5 397.5,154.5C 400.5,154.5 403.5,154.5 406.5,154.5C 406.5,152.833 406.5,151.167 406.5,149.5 Z"/></g>
<g><path style="opacity:1" fill="#99999c" d="M 423.5,148.5 C 424.5,148.5 425.5,148.5 426.5,148.5C 426.5,153.833 426.5,159.167 426.5,164.5C 428.5,164.5 430.5,164.5 432.5,164.5C 432.5,165.5 432.5,166.5 432.5,167.5C 430.5,167.5 428.5,167.5 426.5,167.5C 426.5,173.833 426.5,180.167 426.5,186.5C 425.5,186.5 424.5,186.5 423.5,186.5C 423.5,173.833 423.5,161.167 423.5,148.5 Z"/></g>
<g><path style="opacity:1" fill="#99999f" d="M 514.5,149.5 C 515.5,149.5 516.5,149.5 517.5,149.5C 517.5,156.5 517.5,163.5 517.5,170.5C 516.5,170.5 515.5,170.5 514.5,170.5C 514.5,163.5 514.5,156.5 514.5,149.5 Z"/></g>
<g><path style="opacity:1" fill="#a19fa1" d="M 540.5,148.5 C 541.5,148.5 542.5,148.5 543.5,148.5C 544.756,155.648 549.09,159.315 556.5,159.5C 556.5,160.5 556.5,161.5 556.5,162.5C 550.478,162.647 545.644,160.314 542,155.5C 538.527,160.012 534.027,162.178 528.5,162C 528.043,161.586 527.709,161.086 527.5,160.5C 532.476,159.568 536.642,157.234 540,153.5C 540.494,151.866 540.66,150.199 540.5,148.5 Z"/></g>
<g><path style="opacity:1" fill="#a2a1a6" d="M 627.5,148.5 C 628.833,148.5 630.167,148.5 631.5,148.5C 631.5,153.5 631.5,158.5 631.5,163.5C 633.5,163.5 635.5,163.5 637.5,163.5C 637.5,164.5 637.5,165.5 637.5,166.5C 635.5,166.5 633.5,166.5 631.5,166.5C 631.5,173.167 631.5,179.833 631.5,186.5C 630.167,186.5 628.833,186.5 627.5,186.5C 627.5,173.833 627.5,161.167 627.5,148.5 Z"/></g>
<g><path style="opacity:1" fill="#a09ea2" d="M 252.5,150.5 C 253.5,150.5 254.5,150.5 255.5,150.5C 255.5,161.833 255.5,173.167 255.5,184.5C 254.5,184.5 253.5,184.5 252.5,184.5C 252.5,178.5 252.5,172.5 252.5,166.5C 250.833,166.5 249.167,166.5 247.5,166.5C 248.294,172.933 245.628,176.933 239.5,178.5C 235.582,177.751 233.082,175.418 232,171.5C 231.112,166.382 231.445,161.382 233,156.5C 236.356,152.052 240.356,151.385 245,154.5C 246.908,157.206 247.741,160.206 247.5,163.5C 249.167,163.5 250.833,163.5 252.5,163.5C 252.5,159.167 252.5,154.833 252.5,150.5 Z"/></g>
<g><path style="opacity:1" fill="#a2a0a3" d="M 72.5,151.5 C 78.8802,150.77 83.0468,153.437 85,159.5C 87.2553,167.406 85.0886,173.573 78.5,178C 72.1367,179.401 68.3034,176.901 67,170.5C 66.3333,166.167 66.3333,161.833 67,157.5C 68.3597,154.977 70.193,152.977 72.5,151.5 Z"/></g>
<g><path style="opacity:1" fill="#a1a0a3" d="M 493.5,151.5 C 502.526,150.047 507.026,153.714 507,162.5C 503.945,167.635 499.445,169.468 493.5,168C 485.522,162.367 485.522,156.867 493.5,151.5 Z"/></g>
<g><path style="opacity:1" fill="#a6a2a4" d="M 201.5,152.5 C 202.833,152.5 204.167,152.5 205.5,152.5C 204.003,162.02 207.003,169.687 214.5,175.5C 213.652,177.283 212.319,177.783 210.5,177C 208.326,173.996 205.992,171.163 203.5,168.5C 201.267,172.406 198.267,175.739 194.5,178.5C 193.5,178.167 192.833,177.5 192.5,176.5C 199.822,170.209 202.822,162.209 201.5,152.5 Z"/></g>
<g><path style="opacity:1" fill="#a19fa4" d="M 279.5,152.5 C 280.833,152.5 282.167,152.5 283.5,152.5C 282.003,162.02 285.003,169.687 292.5,175.5C 291.187,177.885 289.52,178.052 287.5,176C 284.963,173.094 282.796,169.927 281,166.5C 279.447,171.616 276.447,175.616 272,178.5C 271.308,177.975 270.808,177.308 270.5,176.5C 277.834,170.169 280.834,162.169 279.5,152.5 Z"/></g>
<g><path style="opacity:1" fill="#a09ea2" d="M 329.5,152.5 C 330.5,152.5 331.5,152.5 332.5,152.5C 331.683,161.212 334.516,168.545 341,174.5C 341.483,175.448 341.649,176.448 341.5,177.5C 336.609,175.779 333.109,172.446 331,167.5C 329.114,171.44 326.614,174.94 323.5,178C 322.035,178.601 321.035,178.101 320.5,176.5C 327.834,170.169 330.834,162.169 329.5,152.5 Z"/></g>
<g><path style="opacity:1" fill="#fcfcfb" d="M 369.5,152.5 C 374.699,152.014 379.699,152.681 384.5,154.5C 386.222,157.749 385.222,159.582 381.5,160C 377.5,160.667 373.5,160.667 369.5,160C 365.581,157.507 365.581,155.007 369.5,152.5 Z"/></g>
<g><path style="opacity:1" fill="#9b9b9f" d="M 566.5,152.5 C 567.5,152.5 568.5,152.5 569.5,152.5C 569.5,159.5 569.5,166.5 569.5,173.5C 575.438,173.377 581.272,172.711 587,171.5C 587.667,172.5 587.667,173.5 587,174.5C 580.304,176.106 573.471,176.772 566.5,176.5C 566.5,168.5 566.5,160.5 566.5,152.5 Z"/></g>
<g><path style="opacity:1" fill="#a29f9f" d="M 603.5,152.5 C 609.5,152.5 615.5,152.5 621.5,152.5C 621.5,153.5 621.5,154.5 621.5,155.5C 616.833,155.5 612.167,155.5 607.5,155.5C 607.5,161.833 607.5,168.167 607.5,174.5C 613.172,174.24 618.839,173.907 624.5,173.5C 624.5,174.5 624.5,175.5 624.5,176.5C 617.524,177.232 610.524,177.565 603.5,177.5C 603.5,169.167 603.5,160.833 603.5,152.5 Z"/></g>
<g><path style="opacity:1" fill="#a4a2a4" d="M 105.5,152.5 C 111.5,152.5 117.5,152.5 123.5,152.5C 123.5,160.833 123.5,169.167 123.5,177.5C 117.5,177.5 111.5,177.5 105.5,177.5C 105.5,169.167 105.5,160.833 105.5,152.5 Z"/></g>
<g><path style="opacity:1" fill="#9e9ea2" d="M 439.5,152.5 C 448.5,152.5 457.5,152.5 466.5,152.5C 466.498,159.52 466.165,166.52 465.5,173.5C 464.167,173.5 462.833,173.5 461.5,173.5C 462.363,167.545 462.697,161.545 462.5,155.5C 454.833,155.5 447.167,155.5 439.5,155.5C 439.5,154.5 439.5,153.5 439.5,152.5 Z"/></g>
<g><path style="opacity:1" fill="#fcfcfb" d="M 494.5,154.5 C 503.871,154.026 505.871,157.526 500.5,165C 493.017,166.689 490.183,163.856 492,156.5C 492.995,155.934 493.828,155.267 494.5,154.5 Z"/></g>
<g><path style="opacity:1" fill="#fbfdfb" d="M 73.5,154.5 C 76.846,154.435 79.346,155.768 81,158.5C 81.6667,162.833 81.6667,167.167 81,171.5C 77.982,176.265 74.6487,176.598 71,172.5C 68.5338,165.931 69.3672,159.931 73.5,154.5 Z"/></g>
<g><path style="opacity:1" fill="#fffefd" d="M 109.5,155.5 C 112.833,155.5 116.167,155.5 119.5,155.5C 119.5,161.833 119.5,168.167 119.5,174.5C 116.167,174.5 112.833,174.5 109.5,174.5C 109.5,168.167 109.5,161.833 109.5,155.5 Z"/></g>
<g><path style="opacity:1" fill="#fdfbf7" d="M 237.5,155.5 C 240.808,154.974 242.974,156.307 244,159.5C 244.667,163.5 244.667,167.5 244,171.5C 241.203,176.589 238.536,176.589 236,171.5C 235.003,165.95 235.503,160.617 237.5,155.5 Z"/></g>
<g><path style="opacity:1" fill="#a0a0a1" d="M 162.5,158.5 C 167.447,157.628 171.613,158.961 175,162.5C 176.437,167.576 174.604,170.909 169.5,172.5C 168.571,173.689 168.238,175.022 168.5,176.5C 171.786,175.793 175.119,175.46 178.5,175.5C 178.5,176.5 178.5,177.5 178.5,178.5C 170.517,179.166 162.517,179.499 154.5,179.5C 154.5,178.5 154.5,177.5 154.5,176.5C 157.833,176.5 161.167,176.5 164.5,176.5C 164.762,175.022 164.429,173.689 163.5,172.5C 157.977,170.701 156.143,167.035 158,161.5C 159.652,160.601 161.152,159.601 162.5,158.5 Z"/></g>
<g><path style="opacity:1" fill="#fafcfc" d="M 162.5,161.5 C 165.249,161.274 167.916,161.607 170.5,162.5C 171.833,164.5 171.833,166.5 170.5,168.5C 167.897,169.562 165.23,169.728 162.5,169C 159.914,166.506 159.914,164.006 162.5,161.5 Z"/></g>
<g><path style="opacity:1" fill="#a19ea0" d="M 405.5,160.5 C 416.77,160.54 420.104,165.707 415.5,176C 404.586,180.736 399.419,177.236 400,165.5C 401.73,163.598 403.563,161.931 405.5,160.5 Z"/></g>
<g><path style="opacity:1" fill="#fbfffe" d="M 370.5,163.5 C 373.833,163.5 377.167,163.5 380.5,163.5C 380.5,164.833 380.5,166.167 380.5,167.5C 377.167,167.5 373.833,167.5 370.5,167.5C 370.5,166.167 370.5,164.833 370.5,163.5 Z"/></g>
<g><path style="opacity:1" fill="#f8f9f9" d="M 406.5,163.5 C 414.957,164.437 416.624,168.27 411.5,175C 404.667,176.167 401.833,173.333 403,166.5C 404.145,165.364 405.312,164.364 406.5,163.5 Z"/></g>
<g><path style="opacity:1" fill="#9b9b9b" d="M 449.5,164.5 C 450.5,164.5 451.5,164.5 452.5,164.5C 452.5,169.167 452.5,173.833 452.5,178.5C 458.5,178.5 464.5,178.5 470.5,178.5C 470.5,179.5 470.5,180.5 470.5,181.5C 459.167,181.5 447.833,181.5 436.5,181.5C 436.5,180.5 436.5,179.5 436.5,178.5C 440.833,178.5 445.167,178.5 449.5,178.5C 449.5,173.833 449.5,169.167 449.5,164.5 Z"/></g>
<g><path style="opacity:1" fill="#9c9c9c" d="M 524.5,165.5 C 536.167,165.5 547.833,165.5 559.5,165.5C 559.5,166.5 559.5,167.5 559.5,168.5C 547.833,168.5 536.167,168.5 524.5,168.5C 524.5,167.5 524.5,166.5 524.5,165.5 Z"/></g>
<g><path style="opacity:1" fill="#9d9c9d" d="M 529.5,171.5 C 530.5,171.5 531.5,171.5 532.5,171.5C 532.5,172.833 532.5,174.167 532.5,175.5C 538.833,175.5 545.167,175.5 551.5,175.5C 551.5,174.167 551.5,172.833 551.5,171.5C 552.5,171.5 553.5,171.5 554.5,171.5C 554.5,176.5 554.5,181.5 554.5,186.5C 546.167,186.5 537.833,186.5 529.5,186.5C 529.5,181.5 529.5,176.5 529.5,171.5 Z"/></g>
<g><path style="opacity:1" fill="#a5a2a4" d="M 495.5,171.5 C 496.833,171.5 498.167,171.5 499.5,171.5C 499.059,176.198 500.726,179.864 504.5,182.5C 508.942,180.156 510.609,176.489 509.5,171.5C 510.833,171.5 512.167,171.5 513.5,171.5C 513.311,176.977 515.645,180.977 520.5,183.5C 519.187,185.885 517.52,186.052 515.5,184C 513.981,182.649 512.648,181.149 511.5,179.5C 510.195,182.638 508.029,184.971 505,186.5C 502,184.833 499.667,182.5 498,179.5C 496.167,181.333 494.333,183.167 492.5,185C 490.681,185.783 489.348,185.283 488.5,183.5C 493.922,181.325 496.255,177.325 495.5,171.5 Z"/></g>
<g><path style="opacity:1" fill="#9f9fa0" d="M 369.5,173.5 C 374.599,173.175 379.599,173.675 384.5,175C 390.19,179.563 389.524,183.23 382.5,186C 377.833,186.667 373.167,186.667 368.5,186C 363.618,184.452 362.284,181.285 364.5,176.5C 366.145,175.304 367.811,174.304 369.5,173.5 Z"/></g>
<g><path style="opacity:1" fill="#fbfbfa" d="M 369.5,176.5 C 373.514,176.334 377.514,176.501 381.5,177C 386.254,178.563 386.587,180.563 382.5,183C 377.833,183.667 373.167,183.667 368.5,183C 365.777,180.341 366.11,178.175 369.5,176.5 Z"/></g>
<g><path style="opacity:1" fill="#9f9fa5" d="M 643.5,177.5 C 647.35,177.701 648.35,179.534 646.5,183C 642.537,183.118 641.537,181.284 643.5,177.5 Z"/></g>
<g><path style="opacity:1" fill="#fcfcfc" d="M 532.5,178.5 C 538.833,178.5 545.167,178.5 551.5,178.5C 551.5,180.167 551.5,181.833 551.5,183.5C 545.167,183.5 538.833,183.5 532.5,183.5C 532.5,181.833 532.5,180.167 532.5,178.5 Z"/></g>
<g><path style="opacity:1" fill="#edeeed" d="M 1738.5,269.5 C 1738.5,270.5 1738.5,271.5 1738.5,272.5C 1159.83,272.5 581.167,272.5 2.5,272.5C 2.5,271.5 2.5,270.5 2.5,269.5C 581.167,269.5 1159.83,269.5 1738.5,269.5 Z"/></g>
</svg>
